<?xml version="1.0" encoding="UTF-8"?>
<svg width="40px" height="40px" viewBox="0 0 40 40" version="1.1" xmlns="http://www.w3.org/2000/svg" xmlns:xlink="http://www.w3.org/1999/xlink">
    <title>express</title>
    <g id="express" stroke="none" stroke-width="1" fill="none" fill-rule="evenodd">
        <g id="expressjs" transform="translate(0.000000, 8.000000)" fill="#000000" fill-rule="nonzero">
            <path d="M40,22.6046313 C38.545,22.9746313 37.645,22.6208813 36.8375,21.4083813 L31.095,13.4633813 L30.265,12.3633813 L23.55875,21.4346313 C22.7925,22.5258813 21.98875,23.0008813 20.55875,22.6146313 L29.14625,11.0871313 L21.15125,0.674631261 C22.52625,0.407131261 23.47625,0.543381261 24.32,1.77463126 L30.27625,9.81838126 L36.27625,1.81838126 C37.045,0.727131261 37.87125,0.312131261 39.25125,0.714631261 L36.15125,4.82463126 L31.95125,10.2933813 C31.45125,10.9183813 31.52,11.3458813 31.98,11.9496313 L40,22.6046313 Z M0.01,10.8946313 L0.7125,7.43963126 C2.625,0.602131261 10.4625,-2.23911874 15.8675,1.98588126 C19.02625,4.47088126 19.81125,7.98588126 19.655,11.9233813 L1.85,11.9233813 C1.5825,19.0108813 6.68375,23.2883813 13.1875,21.1058813 C15.46875,20.3396313 16.8125,18.5533813 17.485,16.3183813 C17.82625,15.1983813 18.39125,15.0233813 19.44375,15.3433813 C18.90625,18.1383813 17.69375,20.4733813 15.13125,21.9346313 C11.3025,24.1221313 5.8375,23.4146313 2.9625,20.3746313 C1.25,18.6108813 0.5425,16.3758813 0.225,13.9858813 C0.175,13.5908813 0.075,13.2146313 0,12.8358813 C0.00666666667,12.1892146 0.01,11.5425479 0.01,10.8958813 L0.01,10.8946313 Z M1.8825,10.4196313 L17.9725,10.4196313 C17.8675,5.29463126 14.67625,1.65463126 10.315,1.62338126 C5.5275,1.58588126 2.09,5.13963126 1.8825,10.4196313 L1.8825,10.4196313 Z" id="Shape"></path>
        </g>
    </g>
</svg>