<svg width="40" height="40" xmlns="http://www.w3.org/2000/svg"><g fill-rule="nonzero" fill="none"><path d="M13.66666667 40c3.68000003 0 6.66666663-2.9866667 6.66666663-6.6666667v-6.6666666h-6.66666663C9.98666667 26.6666667 7 29.6533333 7 33.3333333S9.98666667 40 13.66666667 40Z" fill="#0ACF83"/><path d="M7 20c0-3.68 2.98666667-6.6666667 6.66666667-6.6666667h6.66666663v13.3333334h-6.66666663C9.98666667 26.6666667 7 23.68 7 20Z" fill="#A259FF"/><path d="M7 6.66666667C7 2.98666667 9.98666667 0 13.66666667 0h6.66666663v13.3333333h-6.66666663C9.98666667 13.3333333 7 10.3466667 7 6.66666667Z" fill="#F24E1E"/><path d="M20.3333333 0H27c3.68 0 6.6666667 2.98666667 6.6666667 6.66666667C33.6666667 10.3466667 30.68 13.3333333 27 13.3333333h-6.6666667V0Z" fill="#FF7262"/><path d="M33.6666667 20c0 3.68-2.9866667 6.6666667-6.6666667 6.6666667-3.68 0-6.6666667-2.9866667-6.6666667-6.6666667 0-3.68 2.9866667-6.6666667 6.6666667-6.6666667 3.68 0 6.6666667 2.9866667 6.6666667 6.6666667Z" fill="#1ABCFE"/></g></svg>