<svg xmlns="http://www.w3.org/2000/svg" viewBox="0 0 35 35">
  <g fill="none">
    <path fill="#F7DF1E" d="M0 0h35v35H0z"/>
    <path fill="#000" d="m9.4595996 29.2088531 2.745264-1.5917821c.529714.8996738 1.0115016 1.6609259 2.1672031 1.6609259 1.1077749 0 1.8063528-.4151308 1.8063528-2.0300056v-10.982169h3.3712515v11.0278173c0 3.3453471-2.0468262 4.8681198-5.0331241 4.8681198-2.6969171 0-4.2623763-1.3381657-5.05708744-2.9531748m11.92136854-.3458528 2.7449837-1.5226384c.7226813 1.1306003 1.6618727 1.9611304 3.3233249 1.9611304 1.3970157 0 2.28772-.66915 2.28772-1.5920507 0-1.1073734-.915088-1.49968-2.4563036-2.1454688l-.8426376-.3463899c-2.4323404-.9917758-4.045726-2.2377052-4.045726-4.8678513 0-2.4225807 1.9264494-4.268382 4.9367106-4.268382 2.1432398 0 3.6844554.7153353 4.7920902 2.584095l-2.6250273 1.6151433c-.578061-.9920443-1.2039083-1.3842167-2.1672031-1.3842167-.9873981 0-1.6135257.599872-1.6135257 1.3842167 0 .9689518.6261276 1.3613927 2.0709296 1.9612647l.8427778.345987c2.865781 1.1767857 4.4791666 2.3763954 4.4791666 5.075551 0 2.9072579-2.3839934 4.4990401-5.5868014 4.4990401-3.1304979 0-5.1533608-1.4304021-6.1406189-3.2992961"/>
  </g>
</svg>
