<svg width="40" height="40" xmlns="http://www.w3.org/2000/svg"><g fill="none" fill-rule="evenodd"><path d="m19.85823909.10952636 1.06741 2.00491878c.24000221.36990346.50010471.69750653.80610751 1.00260939.8937084.89370837 1.7424164 1.82971714 2.5050235 2.83232653 1.8084169 2.37482224 3.0285284 5.01214694 3.8994365 7.86427364.5226049 1.7424163.8061076 3.5298331.8274078 5.33705.0873008 5.4033506-1.7649166 10.0428941-5.4993515 13.8985302-.6099057.6099057-1.2624119 1.174811-1.9623184 1.6773157-.3699035 0-.54510512-.2838027-.69750655-.5448051-.28350265-.4788045-.45750428-1.0251096-.5448051-1.5687147-.13140123-.6540061-.21750204-1.3074122-.17490164-1.9824186v-.3048028c-.03000028-.0651006-.35610334-30.0623816-.22620212-30.21628304v.0006l-.0003-.0006Z" fill="#599636"/><path d="M19.85823909.04292574c-.04380041-.08730082-.08730082-.0213002-.13140123.0213002.0213002.4374041-.13140123.82740774-.36990347 1.20001123-.26250246.36990347-.60990571.65400613-.95880898.95880899-1.93711814 1.67731571-3.46203243 3.70353469-4.68334387 5.96945591-1.62481521 3.04982853-2.46242306 6.31805913-2.69972528 9.75909143-.10860102 1.2411116.39270368 5.6208526.78390734 6.8844645 1.06741 3.3546314 2.98472796 6.1656577 5.46815122 8.6052806.60990571.5874055 1.26241182 1.1322106 1.93741815 1.6560155.19620183 0 .21750203-.1749017.26220245-.3051029.0855008-.2784026.15180142-.5628053.19620184-.8502079l.4374041-3.2670306L19.85793909.04292574h.0003Z" fill="#6CAC48"/><path d="M20.92564909 36.053463c.04380041-.5001047.28380261-.9150085.54510511-1.3287124-.2625025-.108601-.4575043-.3249031-.60990572-.5661053-.13140123-.2175021-.24000225-.4788045-.32490304-.7188067-.30510286-.9150086-.36990347-1.8750176-.45750429-2.8098264v-.5661053c-.10860102.0873008-.13140123.8274078-.13140123.9375088-.06090057.9855092-.19620184 1.9740185-.39240368 2.9415276-.0651006.3924036-.10860101.7836073-.35010327 1.1322106 0 .0438004 0 .0873008.0213002.1527014.39240367 1.1550108.50010468 2.3310218.5661053 3.5298331v.4374041c0 .5223049-.0213002.4122038.41250386.5874055.17490164.0651006.36990347.0873008.5448051.217502.13140124 0 .15270143-.108601.15270143-.1962018l-.06510061-.7188068v-2.0049188c-.02130019-.3501032.04380042-.6975065.08730082-1.0248095l.00150002-.0018001Z" fill="#C2BFBF"/></g></svg>