<svg width="40" height="40" xmlns="http://www.w3.org/2000/svg"><defs><radialGradient cx="32.9589462%" cy="22.4357674%" fx="32.9589462%" fy="22.4357674%" r="78.1232923%" gradientTransform="matrix(.97268 0 0 1 .00900503 0)" id="a"><stop stop-color="#34364E" stop-opacity=".98" offset="0%"/><stop stop-color="#0C0824" offset="100%"/></radialGradient></defs><g fill="none" fill-rule="nonzero"><path fill="url(#a)" d="M1.66733467 1.66733467H38.3406814V37.3386774H1.66733467z"/><path d="M1.66733467 1.66733467H38.3406814V37.3386774H1.66733467V1.66733467ZM0 39.006012h40V0H0v39.006012Zm26.9739479-22.997996c-1.3146293 0-1.7635271.6653307-1.7635271 1.2184369 0 .6012024.2965932 1.0180361 2.0681363 1.9318637 2.6132265 1.2665331 3.4308617 2.48497 3.4308617 4.2645291 0 2.6693387-2.0360721 4.1042084-4.7855711 4.1042084-1.4509018 0-2.7014028-.2965932-3.4148297-.7134268-.1202404-.0480962-.1362725-.1362726-.1362725-.2645291v-2.4609218c0-.1683367.0801603-.2164329.2004008-.1362726 1.0501002.6813627 2.252505.985972 3.3507014.985972 1.3146293 0 1.8677355-.5531063 1.8677355-1.2985972 0-.6012024-.3847696-1.1302606-2.0681363-2.0040081-2.3647295-1.1302605-3.3507014-2.2765531-3.3507014-4.2004008 0-2.1482966 1.6833667-3.9358717 4.6012024-3.9358717 1.4348697 0 2.4368737.2164329 2.9819639.4649299.1362726.0801603.1683367.2164328.1683367.3366733v2.2845691c0 .1362726-.0801603.2164329-.248497.1683367-.7374749-.4649298-1.8196393-.745491-2.9018036-.745491Zm-14.3326653 1.97996c.3847695.0320641.6813627.0320641 1.3466934.0320641 1.9478957 0 3.7835671-.6813627 3.7835671-3.3346694 0-2.1162324-1.3146293-3.1823647-3.5350702-3.1823647-.6653306 0-1.2985971.0320641-1.6032064.0480962l.0080161 6.4368738ZM9.66733467 9.13827655c0-.12024048.23246493-.2004008.36873743-.2004008 1.0661323-.04809619 2.6533067-.08016032 4.2965932-.08016032 4.6172345 0 6.4208417 2.53306617 6.4208417 5.76352707 0 4.2324649-3.0701403 6.0521042-6.8376753 6.0521042-.6332666 0-.8496994-.0320641-1.2985972-.0320641v6.3967936c0 .1362725-.0480962.2004008-.2004008.2004008H9.86773547c-.13627254 0-.2004008-.0480962-.2004008-.2004008V9.13827655Z" fill="#31C5F0"/></g></svg>