<svg xmlns="http://www.w3.org/2000/svg" viewBox="0 0 40 40">
  <g fill="#00D8FF" transform="translate(0 2)">
    <circle cx="20" cy="18.1818182" r="3.63636364"/>
    <path d="M20.00712 26.3636364c-5.01958 0-9.4054824-.5930925-12.68778928-1.722112-2.12887148-.7288606-3.93734425-1.7006749-5.22605909-2.8082572C.7262371 20.6613736 0 19.3822946 0 18.1460897c0-2.37237 2.59166963-4.6947201 6.94197223-6.209607C10.501958 10.6931322 15.1441794 10 20 10c4.7703809 0 9.3485226.6716951 12.8871485 1.9007543 2.0719117.7145692 3.8163047 1.6435093 5.0551797 2.6724891C39.2880028 15.7022628 40 16.9384676 40 18.1460897c0 2.465264-2.8978284 4.9591108-7.5685297 6.5097261-3.3036668 1.1004367-7.7180492 1.7078206-12.4243503 1.7078206Zm0-14.6486701c-4.6066216 0-9.1634034.6716951-12.49555005 1.836443-4.00142399 1.4005558-5.79565681 3.3156014-5.79565681 4.5946804 0 1.3290989 1.92951228 3.4227868 6.15877536 4.8733625 3.1043076 1.0647082 7.3050908 1.6292179 12.1324315 1.6292179 4.5283019 0 8.750445-.5716554 11.8903524-1.6220722 4.3930224-1.4648671 6.4008544-3.558555 6.4008544-4.8805082 0-.6788408-.5126379-1.4791584-1.4453542-2.2580389-1.0751157-.9003573-2.6415094-1.7221119-4.514062-2.37237-3.3677465-1.1576022-7.746529-1.8007145-12.3317906-1.8007145Z"/>
    <path d="M12.3481937 35.4545455c-.7271818 0-1.3688129-.1561288-1.9106346-.4683864-2.04609012-1.1780627-2.75901349-4.5703155-1.89637621-9.0767601.70579415-3.6974136 2.43106871-8.0406326 4.86213741-12.2348196 2.3882933-4.11612262 5.2542453-7.73547182 8.0845511-10.1838551 1.6539823-1.43354615 3.3293522-2.48386709 4.8407498-3.03741462 1.646853-.60322486 3.0726997-.60322486 4.1135678-.00709676 2.1316409 1.22064326 2.8374351 4.96773419 1.8393424 9.76514608-.7057942 3.4064463-2.3882934 7.5154721-4.7409405 11.5819174-2.5094903 4.3290255-5.2185991 7.820633-7.8350279 10.098694-1.6967577 1.4761267-3.4434199 2.5548347-5.0403683 3.115479-.8341203.298064-1.6183361.4470961-2.317001.4470961Zm1.7894377-21.3541603.7414403.4258058c-2.3027425 3.9741873-4.0066294 8.239342-4.6625189 11.7025624-.79134492 4.1516064-.0285169 6.649667 1.0693851 7.281279.2709109.1561287.6273726.2412899 1.0622558.2412899 1.4187175 0 3.6501677-.8941922 6.2309503-3.1367693 2.4738442-2.1503192 5.061756-5.4999914 7.4785663-9.6657914 2.2670963-3.9103165 3.8783031-7.8419233 4.5484511-11.07095048.9339296-4.52063811.1283262-7.28837573-1.0194804-7.94837471-.5845972-.33354786-1.5327853-.29096728-2.6734627.12774174-1.3189082.48257989-2.8089181 1.42644939-4.3060572 2.72515704C19.91944 7.1100735 17.174685 10.5732939 14.8790717 14.5332877l-.7414403-.4329025Z"/>
    <path d="M28.5351833 35.4545455c-1.9349194 0-4.389137-1.1642972-6.9500597-3.3651027-2.8596971-2.456383-5.7691898-6.11256-8.2020664-10.3082892-2.3901946-4.1176362-4.09747641-8.398558-4.81595751-12.0689337-.41970678-2.14401056-.4979572-4.11053681-.22763758-5.69369693.29877432-1.72514758 1.00302807-2.95333906 2.04873819-3.55678575 2.1198749-1.22819148 5.7265078.03549687 9.3971637 3.29410895 2.6036048 2.30729614 5.3352557 5.81438628 7.6898819 9.87522753 2.511127 4.3306173 4.1970678 8.4127567 4.8657532 11.8062568.4339341 2.2008056.5050708 4.2454249.1991828 5.9066781-.327229 1.7677439-1.0670511 3.0243328-2.1341022 3.6419783-.5335256.3123724-1.1666426.4685586-1.8708964.4685586ZM14.8627014 20.9292288c2.3048305 3.9756488 5.1645275 7.5750307 7.839269 9.8681281 3.2082671 2.7545567 5.7549625 3.350904 6.857582 2.7119604 1.1453016-.6602416 1.9847151-3.3651027 1.1168469-7.7383163-.6402307-3.2089164-2.2550348-7.1135714-4.673684-11.2809032-2.2692621-3.9117544-4.8799805-7.26975773-7.3484255-9.45636453-3.4572457-3.06692903-6.2600334-3.75556818-7.4053349-3.09532652-.5833213.33367052-1.0172554 1.17849588-1.223552 2.3711905-.23475124 1.37727831-.1636145 3.13792275.2205239 5.07605151.6829127 3.48579204 2.3190578 7.58213004 4.6167746 11.54358004Z"/>
  </g>
</svg>
