<svg xmlns="http://www.w3.org/2000/svg" viewBox="0 0 48 48">
  <path fill="#7e57c2" d="M23 4c-6.617 0-12 7.27-12 16.205 0 4.834 1.582 9.169 4.078 12.136-.048.213-.078.432-.078.659 0 1.657 1.343 3 3 3s3-1.343 3-3-1.343-3-3-3c-.315 0-.612.062-.897.152C15.206 27.731 14 24.175 14 20.205 14 12.924 18.037 7 23 7c3.837 0 7.111 3.547 8.404 8.518 1.122.346 2.237.782 3.33 1.308C33.579 9.508 28.759 4 23 4z"/>
  <path fill="#7e57c2" d="M35.507 20.084c-3.947-2.392-8.374-3.442-12.182-2.959C22.775 16.444 21.943 16 21 16c-1.657 0-3 1.343-3 3s1.343 3 3 3c1.272 0 2.353-.795 2.789-1.912 3.118-.379 6.812.531 10.163 2.563 6.403 3.881 9.67 10.569 7.282 14.911-.827 1.504-2.286 2.572-4.218 3.09-2.286.611-5.007.394-7.727-.528-.839.772-1.749 1.498-2.725 2.168 2.552 1.117 5.196 1.704 7.669 1.704 1.24 0 2.438-.147 3.559-.447 2.741-.733 4.841-2.304 6.071-4.542 3.153-5.731-.596-14.22-8.356-18.923z"/>
  <path fill="#7e57c2" d="M35 28.992C35 27.34 33.657 26 32 26s-3 1.34-3 2.992c0 .669.228 1.281.6 1.779-1.279 2.802-3.744 5.567-7.062 7.578-3.865 2.344-8.185 3.202-11.555 2.302-1.932-.518-3.391-1.586-4.218-3.09-1.702-3.094-.521-7.376 2.61-10.988-.323-1.144-.562-2.34-.706-3.575-5.07 4.797-7.109 11.323-4.532 16.009 1.23 2.238 3.33 3.809 6.071 4.542 1.121.3 2.318.447 3.559.447 3.346 0 7.007-1.068 10.326-3.08 3.836-2.325 6.683-5.577 8.209-8.962C33.815 31.801 35 30.541 35 28.992z"/>
</svg>
