<svg xmlns="http://www.w3.org/2000/svg" viewBox="0 0 40 40">
  <path d="m33.4624595 6.31402676.8431482 1.11009094c.2213671.29298587.1660254.7129323-.1269605.93429941l-.8952346.68037831c.1627699.43296802.2669427.89523462.3092628 1.36726743l1.0189398.13998214c.3646047.04883098.6185258.38739244.5696948.75199708l-.1888131 1.38354442c-.048831.36460465-.3873925.62178114-.7519971.56969476l-1.1133464-.15300373c-.1985793.43296802-.4525004.83012665-.751997 1.18496508l.6250365.8203605c.2213671.2929859.1627699.7129323-.130216.9342994l-1.1100909.8431482c-.2929859.2213671-.7129323.16277-.9342994-.1269605l-.6803783-.8952346c-.4362234.1627699-.8952346.2669426-1.3705228.3092628l-.1399822 1.0189398c-.048831.3646047-.3873924.6185257-.7519971.5696948l-1.3835444-.1888132c-.3646046-.0488309-.6185257-.3873924-.5696947-.751997l.1530037-1.1133464c-.4297126-.1985793-.8301267-.4525004-1.1849651-.7487417l-.8203605.6217812c-.2929858.2213671-.7129323.1660253-.9342994-.1269606l-.8431482-1.1100909c-.2213671-.2929859-.1660254-.7129323.1269605-.93429941l.8952346-.68037831c-.1627699-.43622342-.2669426-.89523463-.3092628-1.36726743l-1.0189398-.13998214c-.3646046-.04883098-.6217811-.38739244-.5696948-.75199709l.1888132-1.38354442c.0520863-.36460464.3873924-.61852574.751997-.56969476l1.1133464.15300374c.1985793-.42971262.4525004-.83012666.7487417-1.18496511l-.6217812-.82036045c-.2213671-.28973048-.1660253-.70967691.1269606-.93104401l1.1100909-.84314825c.2929859-.2213671.7129323-.16602533.9342994.12696055l.6803783.89523462c.432968-.16276993.8952347-.26694269 1.3672675-.30926287l.1399821-1.01893977c.048831-.36460465.3873924-.62178114.7519971-.57295016l1.3835444.18881312c.3646047.04883098.6217811.38739244.5696948.75199709l-.1530038 1.11334633c.432968.19857932.8301267.45250041 1.1882205.75199708l.8203605-.62178114c.2929859-.2246225.7129323-.16928073.9375548.12370515ZM9.65898467 25.849674v-5.3714078h2.76708883c.514353 0 .9050008.0423202 1.1751989.1334714.2701981.0878957.4915652.2506657.6543351.4883098.1660254.2408995.2506657.5306299.2506657.8724468 0 .2962413-.0651079.5566732-.1920685.7715295-.1269605.2181117-.3027521.3939032-.5241192.5273746-.1399821.0846403-.335306.1562591-.5827163.2116009.1985793.0683633.3418168.1302159.4297126.1985793.0618526.0455756.1497483.1399821.2636873.2832197.1139389.1432375.1920685.2571765.2311333.335306l.8073389 1.5528252h-1.8751097l-.8854684-1.6374655c-.1139389-.211601-.2116009-.3515831-.2994967-.4134357-.1204497-.0813849-.2571765-.1237051-.4069248-.1237051h-.1464929v2.1746063H9.65898467v-.0032554Zm5.85320673 9.3527603h-3.0991395l-.4459896 1.4584185H9.17393027l3.33027283-8.8514288h2.9949667l3.3172512 8.8514288h-2.8647508l-.4394788-1.4584185Zm-.5794609-1.9174298-.9668534-3.1837799-.9701088 3.1837799h1.9369622ZM19.46099 27.809424h4.5510473c.9928965 0 1.7351274.2343887 2.2266926.7064215.4915652.4720328.7389755 1.1459003.7389755 2.0150917 0 .8952346-.2701981 1.5951453-.8073388 2.0997321-.5371408.5045868-1.3607567.7552525-2.4643368.7552525H22.205291v3.274931H19.46099V27.809424Zm2.744301 3.7827732h.6738675c.53063 0 .9050009-.0911512 1.1198572-.2767089.2148563-.1823023.3222844-.4199464.3222844-.7031661 0-.2767089-.0944065-.514353-.2799643-.7064215-.1855577-.1920685-.5371407-.2897305-1.0514937-.2897305h-.7845511v1.976027Zm5.8792499-3.7827732h2.7443011v8.8514288h-2.7443011V27.809424Zm-16.7587921-5.1500407h.6999107c.0748741 0 .2213671-.0260432.4394788-.0748742.1106835-.0227877.2018347-.0781295.2701981-.1692807.0716188-.0911511.1041727-.1953239.1041727-.3125183 0-.1725361-.0553417-.3092628-.1660253-.400414-.1106835-.0944065-.3157737-.1399821-.6185257-.1399821h-.7292093v1.0970693Zm3.9325215-2.1811171h4.4436192v1.1459003h-2.7768551v.8561699h2.5750203v1.0938139h-2.5750203v1.0580046h2.85824v1.2142637h-4.5250041v-5.3681524Zm4.9189074 3.5939601 1.5756129-.0976619c.032554.2571765.1041728.449245.2083455.5827163.1725361.2148563.416691.3255399.7324647.3255399.2343887 0 .4199464-.0553418.546907-.1660254.1269605-.1106835.1920685-.2408994.1920685-.3873924 0-.1399821-.0618526-.2636873-.1823023-.3743708-.1204498-.1106836-.4036695-.2116009-.8496591-.3125183-.7259539-.1627699-1.2435622-.3808816-1.5560805-.6510797-.3125183-.2701981-.4687774-.6152704-.4687774-1.0352168 0-.2767089.0813849-.5371408.2408995-.7812957.1595145-.2441549.400414-.4394788.7226985-.5794609.3222844-.1399822.7617633-.2083455 1.3216918-.2083455.6868891 0 1.2077529.1269605 1.5691022.384137.3580938.2571765.5729501.6608459.6413135 1.2207745l-1.559336.0944066c-.0423201-.2441549-.1302159-.4232019-.2604318-.53063-.1334714-.1106836-.3190291-.1660254-.5501624-.1660254-.1920685 0-.3385615.0423202-.4362234.1237052-.097662.081385-.146493.1823023-.146493.2994967 0 .0846403.0423202.1595145.1204498.2311333.0781296.0683633.2604319.1367267.5534178.1985793.7259538.1562591 1.2468176.3157737 1.5593359.4752882s.5436516.3580938.6836337.5957379c.1432376.2343887.2148563.5013314.2148563.7943173 0 .3450723-.0944065.6608459-.2864751.9505764-.1888131.2897305-.4557558.5110976-.7975726.6608459-.3418169.1497484-.7715295.2246225-1.2923933.2246225-.9115116 0-1.5463143-.1757915-1.8978974-.5273745-.351583-.3580939-.5501624-.8040835-.5989933-1.3444797Zm5.1142312-3.5939601h5.0491233v1.3282027h-1.6928073v4.0432051h-1.6602533v-4.0432051h-1.6960627v-1.3282027Zm-5.586264-12.74814103c-.595738-.04557558-1.1979867-.03906478-1.7937247.01953239-1.8327894.17579153-3.6134925.84314825-5.0849327 1.98579317-1.7025734 1.31843645-2.9949667 3.29120802-3.49304269 5.90529317l-.15625914.817105-.81384966.1432376c-.79757266.1399821-1.51050496.3320506-2.1355415.5762055-.60550415.2343887-1.14590032.5241192-1.61793312.865936-.37762624.2734535-.70316611.579461-.97987499.9115117-.85616984 1.0254505-1.25332848 2.311333-1.24356228 3.6134924.0097662 1.3216919.43947882 2.6564053 1.23379608 3.7534747.29624128.4069248.63805813.7812956 1.02870597 1.1068355.39715863.3287953.84314825.6022488 1.34447964.8073389.28321968.1171943.58597175.2148563.90174542.2929859v2.4382935c-.65107973-.1171943-1.25007308-.2929858-1.81000164-.5241192-.73897549-.3060074-1.39331062-.6999107-1.96951618-1.1817097-.54690697-.4557558-1.02545057-.9733641-1.4323754-1.5365481C.59921027 26.2273002.01323851 24.3977662.00021692 22.5747429c-.0130216-1.8425556.55992857-3.675345 1.79698005-5.1598068.40041403-.481799.87244683-.9245332 1.412843-1.315181.62829194-.4557558 1.34773504-.8398929 2.1615847-1.1556666.55992856-.2181117 1.15892191-.400414 1.79046925-.5469069.7161877-2.84521843 2.24296966-5.03610171 4.20597508-6.55637288 1.8360448-1.4226092 4.0464605-2.25273585 6.3219841-2.47084756 1.1947313-.11393895 2.4057396-.06185258 3.5907047.15951453-.0260432.10742816-.048831.21485631-.0618526.32553986l-.0032554.0195324c-.0227878.18555772-.032554.37111544-.0227878.55992856-.2506657.09766196-.4850544.2311333-.6966553.39390324l-.0097662.00651079c-.3157736.2376441-.5827163.54365158-.7812956.89523463Zm17.2243141 6.25036538c.1823024.16602535.3580939.33856145.53063.52411915.3483277.3743709.6771229.7975727.9863858 1.2696055 1.0417276 1.6016561 1.5756129 3.740453 1.5528252 5.8336744-.0227878 2.0541565-.5762056 4.0985468-1.7090843 5.602541-.7389755.979875-1.6862965 1.7807031-2.8224306 2.4155058-.7780403.4362234-1.6537426.7975727-2.6075744 1.0905585V28.193561c.514353-.1920685.9928966-.4069248 1.4323754-.6510797.8561699-.4785436 1.5560806-1.06126 2.0801998-1.7611707.8138496-1.0840477 1.2142637-2.6173405 1.2305407-4.189698.0195324-1.6504871-.3841371-3.3074851-1.1686882-4.5119825-.2246225-.3483277-.4720328-.660846-.7324646-.9408103-.1009174-.1074281-.2018348-.2083455-.3060075-.3060074.016277-.16277.0227878-.3287953.0130216-.4948206.2506657-.097662.4850544-.2311333.6966553-.3939033l.0097662-.0065108c.335306-.2571764.6152703-.5827163.8138496-.95708715Zm-8.2556909-5.81414196c1.5007388.20509011 2.5489771 1.58863453 2.343887 3.0893733-.2050901 1.50073877-1.5886345 2.55223253-3.0893733 2.34714242-1.5007388-.20509012-2.5522325-1.58863454-2.343887-3.08937331.2083455-1.50073877 1.5886345-2.55223253 3.0893733-2.34714241Z"/>
</svg>
