<svg xmlns="http://www.w3.org/2000/svg" viewBox="0 0 40 40">
  <path fill="#65C0C5" fill-rule="evenodd" d="M11 16.33759595c.62465101-2.21139355 1.3962938-3.72976379 2.3149283-4.55511073 1.4516103-1.65935334 3.6003958-2.74252297 6.6850456-2.78117401 8.019905-.1004904 8.6293447 5.6062473 12.4666305 6.41924915 2.5581905.54200123 4.735989-.37503436 6.5333956-2.75110678-.2733225 1.51385887-1.0991939 3.11954175-2.4776141 4.81704863-1.122355 1.13447498-2.5696189 1.89249979-4.3417915 2.27407449-3.553344.6013132-6.4324013.0699748-8.6371719-1.59401511-3.307156-2.49598489-3.8700468-3.87068492-5.241613-4.34466845-.7316327-.25283639-2.1415288-.78108838-4.2063843 0C13.166285 14.1330662 12.1344766 14.9716338 11 16.33759595ZM2 27.3375959c.62465101-2.2113935 1.39629377-3.7297637 2.31492826-4.5551107 1.45161038-1.6593533 3.60039587-2.742523 6.68504564-2.781174 8.019905-.1004904 8.6293447 5.6062473 12.4666305 6.4192492 2.5581905.5420012 4.735989-.3750344 6.5333956-2.7511068-.2733225 1.5138588-1.0991939 3.1195417-2.4776141 4.8170486-1.122355 1.134475-2.5696189 1.8924998-4.3417915 2.2740745-3.553344.6013132-6.4324013.0699748-8.6371719-1.5940151-3.30715605-2.4959849-3.87004677-3.8706849-5.241613-4.3446685-.73163269-.2528364-2.1415288-.7810883-4.20638433 0C4.16628496 25.1330662 3.13447657 25.9716338 2 27.3375959Z"/>
</svg>
