<svg width="40" height="40" xmlns="http://www.w3.org/2000/svg"><g fill="none" fill-rule="evenodd"><path fill="#007ACC" d="M0 20V0h40v40H0z"/><path d="M8.76953125 20.0683594v1.6308593H13.968099V36.500651h3.6914062V21.6992187h5.1985677v-1.6015625c0-.8984375 0-1.6308593-.0390625-1.6503906 0-.0292969-3.1705729-.0390625-7.0214844-.0390625L8.79882812 18.4375v1.640625l-.02929687-.0097656Zm23.36914065-1.6699219c1.0188802.2408854 1.8001302.6998698 2.5 1.4290365.3710937.4003906.9212239 1.1002604.9602864 1.2792968 0 .0585938-1.7285156 1.2304688-2.7799479 1.8815104-.0390625.0292969-.1985677-.1399739-.3613281-.4003906-.5208333-.7389323-1.0514323-1.0611979-1.8815104-1.1197916-1.2011719-.0813803-1.9986979.5501302-1.9986979 1.5983072 0 .3190105.0585937.5013021.1790364.7584636.2701823.5501302.7714844.8789062 2.3209636 1.5592448 2.8613281 1.2304687 4.1015625 2.0410156 4.8502604 3.1998698.8496094 1.2988281 1.0384114 3.3398437.46875 4.8697916-.6412761 1.6699219-2.2005209 2.7994792-4.4303386 3.170573-.6998698.1204427-2.3014323.1009114-3.0501302-.0292969-1.5983073-.2994792-3.1315104-1.1002604-4.0690104-2.1289063-.3710937-.4003906-1.0807292-1.4713541-1.0384114-1.5397135l.3808593-.2408854 1.5006511-.8691407 1.1295573-.6608072.2604166.3515625c.3287761.5208333 1.0709636 1.2207031 1.5006511 1.4615885 1.2988281.6705729 3.0403646.5794271 3.8997396-.1985677.3710937-.3385417.5305989-.6998698.5305989-1.2011719 0-.4589844-.0716146-.6705729-.2994792-1.0188802-.3190104-.4394531-.9602864-.8007812-2.7604166-1.5983073-2.0703125-.8789062-2.9492188-1.4388021-3.7695313-2.3014323-.46875-.5208333-.8984375-1.3313802-1.1002604-1.9986979-.1497396-.5794271-.1985677-1.9986979-.0585937-2.5716146.4296875-1.9986979 1.9401041-3.3984375 4.1015625-3.7988281.6998698-.139974 2.3502604-.0813802 3.0403645.1009115l-.0260416.016276Z" fill="#FFF"/></g></svg>