<?xml version="1.0" encoding="UTF-8"?>
<svg width="139px" height="139px" viewBox="0 0 139 139" version="1.1" xmlns="http://www.w3.org/2000/svg" xmlns:xlink="http://www.w3.org/1999/xlink">
    <title>Express</title>
    <g id="Web" stroke="none" stroke-width="1" fill="none" fill-rule="evenodd">
        <g id="01" transform="translate(-433.000000, -243.000000)">
            <rect fill="#FFFFFF" x="0" y="0" width="1440" height="526"></rect>
            <g id="Express" transform="translate(433.000000, 243.000000)">
                <rect id="bg-rectangle" fill="#F2F2F3" x="0" y="0" width="139" height="139" rx="23"></rect>
                <g id="expressjs" transform="translate(40.000000, 53.000000)" fill="#000000" fill-rule="nonzero">
                    <path d="M59,33.1182731 C56.853875,33.6603638 55.526375,33.1420811 54.3353125,31.3656352 L45.865125,19.7253356 L44.640875,18.1137145 L34.7491562,31.4040943 C33.6189375,33.0028957 32.4334062,33.698823 30.3241562,33.1329242 L42.9907187,16.2438678 L31.1980937,0.988409061 C33.2262187,0.596492115 34.6274687,0.796113363 35.872,2.60003015 L44.6574687,14.3850093 L53.5074687,2.66412871 C54.641375,1.06532734 55.8600937,0.457306657 57.8955937,1.04701346 L53.3230937,7.06861589 L47.1280937,15.0809366 C46.3905937,15.9966304 46.492,16.622965 47.1705,17.5075252 L59,33.1182731 Z M0.01475,15.9618341 L1.0509375,10.8998787 C3.871875,0.88218858 15.4321875,-3.28055543 23.4045625,2.90953465 C28.0637188,6.5503332 29.2215938,11.7001951 28.991125,17.4690661 L2.72875,17.4690661 C2.3341875,27.8530337 9.85853125,34.1200421 19.4515625,30.9224394 C22.8164063,29.7997988 24.7984375,27.1827459 25.790375,23.9082249 C26.2937188,22.2673016 27.1270938,22.0109073 28.6795313,22.4797425 C27.8867188,26.5747252 26.0982813,29.9957572 22.3185938,32.1366493 C16.6711875,35.3415776 8.6103125,34.3050123 4.3696875,29.8510776 C1.84375,27.2669897 0.8001875,23.9924687 0.331875,20.4908556 C0.258125,19.9121371 0.110625,19.3608894 0,18.805979 C0.00983333333,17.8585412 0.01475,16.9111033 0.01475,15.9636655 L0.01475,15.9618341 Z M2.7766875,15.2659068 L26.5094375,15.2659068 C26.3545625,7.75721763 21.6474687,2.42421694 15.214625,2.37843225 C8.1530625,2.32349062 3.08275,7.53012556 2.7766875,15.2659068 L2.7766875,15.2659068 Z" id="Shape"></path>
                </g>
            </g>
        </g>
    </g>
</svg>