<?xml version="1.0" encoding="UTF-8"?>
<svg width="139px" height="139px" viewBox="0 0 139 139" version="1.1" xmlns="http://www.w3.org/2000/svg" xmlns:xlink="http://www.w3.org/1999/xlink">
    <title>js</title>
    <g id="Web" stroke="none" stroke-width="1" fill="none" fill-rule="evenodd">
        <g id="01" transform="translate(-651.000000, 0.000000)">
            <g id="js" transform="translate(651.000000, 0.000000)">
                <rect id="bg-rectangle" fill="#F7DF1E" x="0" y="0" width="139" height="139" rx="23"></rect>
                <g id="group" transform="translate(53.000000, 70.000000)" fill="#000000" fill-rule="nonzero">
                    <path d="M0.000331842019,31.8376052 L6.501117,27.9771991 C7.75547984,30.159097 8.8963527,32.0052932 11.6330538,32.0052932 C14.256265,32.0052932 15.9104975,30.9985139 15.9104975,27.0821033 L15.9104975,0.448036334 L23.8936209,0.448036334 L23.8936209,27.1928099 C23.8936209,35.3059795 19.0467364,38.9990232 11.975183,38.9990232 C5.58888329,38.9990232 1.88187609,35.7536902 0,31.836954 M28.2298006,30.9981883 L34.7299221,27.3054702 C36.4412314,30.0474135 38.6652366,32.0616234 42.5995556,32.0616234 C45.9076887,32.0616234 48.0168765,30.4387941 48.0168765,28.2005661 C48.0168765,25.5149529 45.8499481,24.5635269 42.2003496,22.9973534 L40.2049836,22.1572853 C34.4452016,19.7520204 30.6247045,16.73038 30.6247045,10.3517232 C30.6247045,4.47645605 35.1865367,0 42.3148351,0 C47.390027,0 51.0396255,1.73483836 53.6625048,6.26697335 L47.4464401,10.1840352 C46.0775918,7.77811916 44.5955853,6.82701877 42.3145033,6.82701877 C39.9763444,6.82701877 38.4936743,8.28183442 38.4936743,10.1840352 C38.4936743,12.5339467 39.9763444,13.4856983 43.3976356,14.940514 L45.3933335,15.7796053 C52.1795028,18.6335576 56,21.5428633 56,28.0888826 C56,35.1395939 50.3547036,39 42.7704542,39 C35.3574353,39 30.5672958,35.5309745 28.2294688,30.9985139" id="Shape"></path>
                </g>
            </g>
        </g>
    </g>
</svg>