<?xml version="1.0" encoding="UTF-8"?>
<svg width="139px" height="139px" viewBox="0 0 139 139" version="1.1" xmlns="http://www.w3.org/2000/svg" xmlns:xlink="http://www.w3.org/1999/xlink">
    <title>mongodb</title>
    <g id="Web" stroke="none" stroke-width="1" fill="none" fill-rule="evenodd">
        <g id="01" transform="translate(-1302.000000, 0.000000)">
            <g id="mongodb" transform="translate(1302.000000, 0.000000)">
                <rect id="bg-rectangle" fill="#F2F2F3" x="0" y="0" width="139" height="139" rx="23"></rect>
                <g id="group" transform="translate(50.000000, 29.000000)">
                    <path d="M19.0659531,0 L21.4020338,4.2858678 C21.9272908,5.07660176 22.4965382,5.77691114 23.1662409,6.42912236 C25.1221668,8.33958176 26.979607,10.3404657 28.6486112,12.4837203 C32.606423,17.560322 35.2766984,23.1980691 37.1827249,29.2949935 C38.3264721,33.0197159 38.946932,36.8406347 38.9935486,40.7038799 C39.1846108,52.2544957 35.1309396,62.1723388 26.9579401,70.4144416 C25.6231307,71.7182227 24.1950881,72.9258075 22.6633073,74 C21.8537549,74 21.4703172,73.3933217 21.136779,72.8353829 C20.5163191,71.8118538 20.1355078,70.6440302 19.9444455,69.4819784 C19.6568673,68.0839248 19.4684313,66.6871539 19.5616645,65.2442087 L19.5616645,64.5926388 C19.4960073,64.4534748 18.7823143,0.328991498 19.0666097,0 L19.0666097,0.00128261793 L19.0659531,0 Z" id="Path" fill="#599636"></path>
                    <path d="M19.4679271,0.0917285711 C19.371666,-0.0948257006 19.2760643,0.0462118931 19.179144,0.137245249 C19.2259559,1.07193985 18.8903609,1.90534381 18.3661998,2.70156514 C17.789293,3.49201674 17.025798,4.09911947 16.2590064,4.75045672 C12.0017636,8.33473484 8.65042932,12.664589 5.96632904,17.506666 C2.39544053,24.023885 0.554613218,31.0078102 0.0330894344,38.3609975 C-0.205585167,41.0131453 0.896142067,50.3722718 1.75589809,53.0725007 C4.10176613,60.2410569 8.31549369,66.2479762 13.7733621,71.4612386 C15.1137639,72.7164731 16.5477895,73.8806744 18.0312642,75 C18.4624609,75 18.5092727,74.6262504 18.6075117,74.3480217 C18.7954185,73.7530995 18.9411287,73.1453556 19.0387084,72.531201 L20,65.5498401 L19.4672677,0.0917285711 L19.4679271,0.0917285711 Z" id="Path" fill="#6CAC48"></path>
                    <path d="M21.7973259,77.6589674 C21.8939635,76.6019928 22.4234842,75.7250906 23,74.8507246 C22.4208366,74.6211957 21.990601,74.1640399 21.6543553,73.6542572 C21.3644427,73.1945652 21.1248345,72.6423007 20.9375165,72.1350543 C20.2643633,70.2011775 20.1213926,68.172192 19.9281176,66.1964674 L19.9281176,65 C19.6885094,65.1845109 19.6382049,66.7487319 19.6382049,66.9814312 C19.503839,69.0643116 19.2053217,71.1535326 18.7724384,73.1983696 C18.6288059,74.0277174 18.5328303,74.854529 18,75.5913043 C18,75.6838768 18,75.7758152 18.046995,75.9140399 C18.9127615,78.355163 19.1503839,80.8406703 19.2960021,83.3743659 L19.2960021,84.2988225 C19.2960021,85.4027174 19.2490071,85.1700181 20.206116,85.540308 C20.5920042,85.6778986 21.0222399,85.7248188 21.4081281,86 C21.6980408,86 21.7450357,85.770471 21.7450357,85.5853261 L21.6014032,84.0661232 L21.6014032,79.8287138 C21.5544083,79.0887681 21.6980408,78.354529 21.7940164,77.6627717 L21.7973259,77.6589674 L21.7973259,77.6589674 Z" id="Path" fill="#C2BFBF"></path>
                </g>
            </g>
        </g>
    </g>
</svg>