<?xml version="1.0" encoding="UTF-8"?>
<svg width="139px" height="139px" viewBox="0 0 139 139" version="1.1" xmlns="http://www.w3.org/2000/svg" xmlns:xlink="http://www.w3.org/1999/xlink">
    <title>react</title>
    <g id="Web" stroke="none" stroke-width="1" fill="none" fill-rule="evenodd">
        <g id="01" transform="translate(-868.000000, 0.000000)">
            <g id="react" transform="translate(868.000000, 0.000000)">
                <rect id="bg-rectangle" fill="#F2F2F3" x="0" y="0" width="139" height="139" rx="23"></rect>
                <g id="group" transform="translate(33.000000, 37.000000)" fill="#00D8FF" fill-rule="nonzero">
                    <circle id="Oval" cx="38" cy="33" r="7"></circle>
                    <path d="M37.5133499,49 C28.1016376,49 19.8780705,47.8764192 13.7237451,45.7375546 C9.73211107,44.3567686 6.34122464,42.5157205 3.9248843,40.4174672 C1.36169455,38.1973799 0,35.7742358 0,33.4323144 C0,28.9379913 4.85938056,24.5384279 13.0161979,21.668559 C19.6911712,19.3131004 28.3953364,18 37.5,18 C46.4444642,18 55.0284799,19.2724891 61.6634033,21.6008734 C65.5482378,22.9545852 68.8189747,24.7144105 71.1418654,26.6637555 C73.6650053,28.8026201 75,31.1445415 75,33.4323144 C75,38.1026201 69.5665717,42.8270742 60.8090068,45.7646288 C54.6146315,47.849345 46.3376646,49 37.5133499,49 Z M37.5133499,21.2489083 C28.8759345,21.2489083 20.3319687,22.5213974 14.0841937,24.7279476 C6.58152367,27.3812227 3.21733713,31.0091703 3.21733713,33.4323144 C3.21733713,35.9502183 6.83517266,39.9165939 14.7650409,42.6646288 C20.5856177,44.6816594 28.4620862,45.7510917 37.5133499,45.7510917 C46.003916,45.7510917 53.9204343,44.6681223 59.8077608,42.6781659 C68.0446778,39.9030568 71.8093628,35.9366812 71.8093628,33.4323144 C71.8093628,32.1462882 70.8481666,30.630131 69.0993236,29.1545852 C67.0834817,27.4489083 64.1464934,25.8921397 60.6354575,24.660262 C54.3209327,22.4672489 46.1107156,21.2489083 37.5133499,21.2489083 Z" id="Shape"></path>
                    <path d="M22.8080964,66 C21.4453037,66 20.2428397,65.7093603 19.2274255,65.1280808 C15.3929011,62.9350718 14.0568299,56.6202628 15.6734761,48.2313428 C16.9961866,41.3484652 20.2294789,33.2633959 24.7854818,25.4557555 C29.2613204,17.7934349 34.6323267,11.0558772 39.9365294,6.49811755 C43.0362146,3.82951625 46.175982,1.87430341 49.008453,0.843853408 C52.0947775,-0.279072882 54.7669199,-0.279072882 56.7175839,0.83064251 C60.7124369,3.10291688 62.0351474,10.0782708 60.1646477,19.0088375 C58.8419372,25.3500683 55.6888091,32.999178 51.2797741,40.5690223 C46.5768034,48.6276698 41.4997327,55.1274313 36.5963514,59.3681294 C33.4165019,62.1159961 30.1431274,64.1240526 27.1503279,65.1677135 C25.5871245,65.7225712 24.1174462,66 22.8080964,66 Z M26.1616352,26.2484093 L27.5511492,27.0410632 C23.2356392,34.4391658 20.042429,42.3789152 18.8132434,48.8258332 C17.3302044,56.5542083 18.7598006,61.2044442 20.8173503,62.3802141 C21.3250573,62.6708538 21.9930929,62.8293846 22.8080964,62.8293846 C25.4668781,62.8293846 29.648781,61.1648115 34.4853588,56.9901679 C39.121526,52.9872659 43.9714645,46.7517223 48.5007459,38.9969255 C52.7494524,31.7177209 55.7689734,24.3988837 57.0248803,18.3879253 C58.7751336,9.9725836 57.2653731,4.82033356 55.1142985,3.59172009 C54.0187201,2.97080791 52.2417453,3.05007329 50.1040314,3.82951625 C47.6322996,4.72785728 44.8399108,6.48490665 42.0341612,8.9025009 C36.9971727,13.2356753 31.8532985,19.6825933 27.5511492,27.0542741 L26.1616352,26.2484093 Z" id="Shape"></path>
                    <path d="M53.1437139,66 C49.5175317,66 44.9181461,63.8326161 40.1187872,59.7357319 C34.7595031,55.1630806 29.3068981,48.3569665 24.7475071,40.5464551 L24.7475071,40.5464551 C20.2681055,32.881317 17.0685329,24.9122164 15.7220461,18.0796709 C14.9354845,14.0885128 14.7888374,10.4277485 15.2954364,7.48063506 C15.8553616,4.2692065 17.1751853,1.98288081 19.1349235,0.859541601 C23.1077262,-1.42678408 29.8668233,0.925620378 36.7459044,6.99165211 C41.6252526,11.2867726 46.7445687,17.8153558 51.1573126,25.3747679 C55.8633507,33.4363787 59.0229286,41.035438 60.2760945,47.3525691 C61.0893192,51.4494533 61.2226348,55.2555909 60.649378,58.3480776 C60.0361266,61.6388007 58.6496451,63.9779894 56.6499123,65.1277601 C55.6500458,65.7092534 54.4635376,66 53.1437139,66 Z M27.52047,38.9605644 C31.8398931,46.3613875 37.1991772,53.0617755 42.2118409,57.3304645 C48.2243711,62.4581776 52.9970669,63.568301 55.0634575,62.378883 C57.2098375,61.1498178 58.7829607,56.114615 57.1565113,47.9737096 C55.9566715,42.0001882 52.9304091,34.7315227 48.3976813,26.9738743 C44.144916,19.6919931 39.2522362,13.4409407 34.6261875,9.37048808 C28.147053,3.66128175 22.8944213,2.37935347 20.7480414,3.60841873 C19.6548541,4.22955923 18.8416294,5.80223412 18.4550143,8.02248103 C18.0150731,10.5863376 18.1483886,13.8638449 18.8682925,17.4717461 C20.1481215,23.9606821 23.2143786,31.5861729 27.52047,38.9605644 L27.52047,38.9605644 Z" id="Shape"></path>
                </g>
            </g>
        </g>
    </g>
</svg>