<?xml version="1.0" encoding="UTF-8"?>
<svg width="139px" height="139px" viewBox="0 0 139 139" version="1.1" xmlns="http://www.w3.org/2000/svg" xmlns:xlink="http://www.w3.org/1999/xlink">
    <title>redux</title>
    <g id="Web" stroke="none" stroke-width="1" fill="none" fill-rule="evenodd">
        <g id="01" transform="translate(-1085.000000, 0.000000)">
            <g id="redux" transform="translate(1085.000000, 0.000000)">
                <rect id="bg-rectangle" fill="#F2F2F3" x="0" y="0" width="139" height="139" rx="23"></rect>
                <g id="group" transform="translate(35.000000, 37.000000)" fill="#764ABC" fill-rule="nonzero">
                    <path d="M47.8097162,45.3954796 C50.3559778,45.1339113 52.2877081,42.9557798 52.1998409,40.3417012 C52.1122433,37.7278899 49.9169114,35.6366805 47.2827827,35.6366805 L47.1073178,35.6366805 C44.3850524,35.7238699 42.2778572,37.9891908 42.3657244,40.6901915 C42.4535916,41.9972308 42.9802556,43.1298913 43.7705212,43.9140614 C40.7851933,49.75201 36.2193342,54.0213509 29.3705456,57.5937112 C24.7168194,60.033411 19.8876283,60.9047705 15.0584372,60.2949793 C11.1071094,59.7721101 8.03391426,58.0296584 6.10191439,55.1540114 C3.29232083,50.8846705 3.02898882,46.2665718 5.39978553,41.6487405 C7.06818386,38.3376811 9.70204305,35.8979814 11.3704414,34.6781315 C11.0192422,33.545471 10.4923086,31.6286404 10.2289766,30.2346791 C-2.50287017,39.3834196 -1.18567105,51.75603 2.67778963,57.5937112 C5.57525037,61.950509 11.4583086,64.6515097 17.955898,64.6515097 C19.7118939,64.6515097 21.4678899,64.4771308 23.2241554,64.0417184 C34.4633382,61.8633195 42.9805251,55.2412008 47.8097162,45.3954796 Z M63.2635589,34.5912095 C56.5902352,26.8364303 46.7561186,22.5670894 35.5169358,22.5670894 L34.112139,22.5670894 C33.3218735,20.9987491 31.6534751,19.9530107 29.809612,19.9530107 L29.6338776,19.9530107 C26.9121512,20.0402001 24.8049561,22.305521 24.8925537,25.0067892 C24.9804209,27.6206004 27.1754833,29.7118099 29.809612,29.7118099 L29.9850768,29.7118099 C31.9168072,29.6246204 33.5852055,28.4047705 34.2876039,26.7492408 L35.868135,26.7492408 C42.5414588,26.7492408 48.8633138,28.6660714 54.5709072,32.4128106 C58.9610319,35.2881901 62.1220941,39.0349293 63.8780901,43.5655711 C65.3707541,47.2251208 65.2828869,50.797481 63.7023558,53.8472395 C61.2439614,58.4650707 57.1171687,60.99196 51.6731769,60.99196 C48.1609154,60.99196 44.8243883,59.9462215 43.0681228,59.1620514 C42.1023924,60.033411 40.3461269,61.4273723 39.1167949,62.2989993 C42.892658,64.041451 46.7561186,65 50.4438449,65 C58.8731647,65 65.1074221,60.3819013 67.4782188,55.76407 C70.0244803,50.7102916 69.848746,41.9972308 63.2635589,34.5912095 L63.2635589,34.5912095 Z M18.6582963,46.876363 C18.7461635,49.4904417 20.9412259,51.5813837 23.5753546,51.5813837 L23.751089,51.5813837 C26.4730849,51.4944617 28.58028,49.2288733 28.4924129,46.5278726 C28.4048152,43.913794 26.2094833,41.8228519 23.5753546,41.8228519 L23.3998898,41.8228519 C23.2241554,41.8228519 22.9605539,41.8228519 22.7853586,41.9097739 C19.1852299,35.9849033 17.6925659,29.537431 18.2194995,22.5668219 C18.5704292,17.338932 20.3266947,12.8080227 23.3998898,9.06128361 C25.9461513,5.8374137 30.8632096,4.26907346 34.2000062,4.18215147 C43.5071892,4.00777258 47.4582475,15.5090234 47.721849,20.1271221 C48.8633138,20.388423 50.7950441,20.9984817 52.1122433,21.4341615 C51.0583762,7.31909939 42.2778572,0 33.848807,0 C25.9461513,0 18.6582963,5.66356971 15.7605661,14.0281401 C11.7216406,25.1809006 14.3557693,35.8979814 19.2728276,44.3497412 C18.8340307,44.9595324 18.5704292,45.9180814 18.6582963,46.8766304 L18.6582963,46.876363 Z" id="Shape"></path>
                </g>
            </g>
        </g>
    </g>
</svg>