<?xml version="1.0" encoding="UTF-8"?>
<svg width="139px" height="139px" viewBox="0 0 139 139" version="1.1" xmlns="http://www.w3.org/2000/svg" xmlns:xlink="http://www.w3.org/1999/xlink">
    <title>sass</title>
    <g id="Web" stroke="none" stroke-width="1" fill="none" fill-rule="evenodd">
        <g id="01" transform="translate(0.000000, -243.000000)">
            <g id="sass" transform="translate(0.000000, 243.000000)">
                <rect id="bg-rectangle" fill="#F2F2F3" x="0" y="0" width="139" height="139" rx="23"></rect>
                <g id="group" transform="translate(30.000000, 40.000000)" fill="#CF649A" fill-rule="nonzero">
                    <path d="M68.867835,34.4536862 C66.0707158,34.4694777 63.6486293,35.1416361 61.617202,36.1424468 C60.8671365,34.6571004 60.117071,33.3592204 59.9922164,32.3899928 C59.8515791,31.2642567 59.6796891,30.5761504 59.8515791,29.2316774 C60.0233128,27.8868917 60.804631,25.9793943 60.804631,25.8230421 C60.7888484,25.682325 60.6325848,24.9943752 59.0232255,24.9787399 C57.4138663,24.9631047 56.0229636,25.2914444 55.8666999,25.7135955 C55.7104363,26.1357466 55.397909,27.1051305 55.1947663,28.1057849 C54.9134917,29.575496 51.9757352,34.7820259 50.3037143,37.5181902 C49.7567915,36.4549949 49.2880006,35.5168814 49.1940862,34.7662343 C49.0536051,33.6406545 48.8815589,32.9525482 49.0536051,31.6080752 C49.2254951,30.2632896 50.0068134,28.3559485 50.0068134,28.1995962 C49.991187,28.0588792 49.8349233,27.3709293 48.2255641,27.3552941 C46.6158923,27.3396589 45.2253022,27.6679986 45.0690385,28.0901497 C44.9127749,28.5123007 44.7408849,29.5129551 44.3971049,30.4823391 C44.0687949,31.451723 40.1622039,40.144908 39.1464902,42.4120156 C38.6308202,43.5690222 38.1778119,44.4915005 37.849502,45.1169095 C37.5213483,45.7423185 37.8338756,45.1638152 37.8026229,45.226356 C37.5213483,45.7579537 37.3650847,46.055023 37.3650847,46.055023 L37.3650847,46.0708145 C37.1463156,46.4616952 36.9119201,46.8367842 36.8023793,46.8367842 C36.7242475,46.8367842 36.5679839,45.7892241 36.833632,44.3509398 C37.4118075,41.3331851 38.8181803,36.6271388 38.8027102,36.4551513 C38.8027102,36.3769752 39.0682021,35.5481519 37.8962248,35.1261572 C36.7555002,34.7040061 36.349371,35.4075912 36.2554566,35.4075912 C36.1616984,35.4075912 36.0835666,35.6577548 36.0835666,35.6577548 C36.0835666,35.6577548 37.3493021,30.35757 33.6614801,30.35757 C31.3487782,30.35757 28.1609999,32.8748412 26.5827371,35.1732192 C25.5826498,35.7204521 23.4574643,36.8773024 21.2072678,38.1126415 C20.3478178,38.5816982 19.457115,39.0820254 18.6132914,39.5354469 L18.4415576,39.3475115 C13.9724174,34.578768 5.70607077,31.2015594 6.04985078,24.7911172 C6.17486169,22.4614687 6.98743263,16.3168254 21.9263931,8.87445838 C34.1618363,2.77672071 43.9595667,4.44968976 45.6626841,8.17087326 C48.0847706,13.4868497 40.4278521,23.3683118 27.7081479,24.7911172 C22.863975,25.3383501 20.3167213,23.4621231 19.6761967,22.758538 C19.004263,22.0236824 18.9105048,21.992412 18.660483,22.133129 C18.2541975,22.3520222 18.5042193,23.0087016 18.660483,23.3995822 C19.0355157,24.3846014 20.5981521,26.1357466 23.2546341,27.0113192 C25.5828061,27.7774452 31.2709589,28.1995962 38.1465592,25.541608 C45.8503567,22.5552801 51.866507,14.2686109 50.1007278,7.34220635 C48.3036959,0.290719963 36.6151755,-2.02329331 25.567336,1.90114812 C18.9884804,4.24643184 11.8628583,7.90507444 6.73741081,12.7050885 C0.643128756,18.3963103 -0.325705826,23.3683118 0.0805796436,25.4321614 C1.50273505,32.7963523 11.6440892,37.5963663 15.7069439,41.1455624 C15.5038011,41.2548526 15.3162848,41.3642992 15.1443948,41.4582669 C13.1129674,42.4587649 5.37791712,46.5084445 3.44024795,50.7923397 C1.25255696,55.6392594 3.78402797,59.1260709 5.4716753,59.5951276 C10.690881,61.0492036 16.0350975,58.438121 18.9259749,54.1384342 C21.8010697,49.8387474 21.4574459,44.2569721 20.1292049,41.7084305 L20.0821696,41.6146191 L21.6760587,40.6765056 C22.707555,40.0667319 23.7232687,39.5038638 24.6138152,39.0190155 C24.1139278,40.37928 23.7543652,41.9897082 23.5670051,44.3349919 C23.348236,47.0869478 24.4733342,50.6516227 25.9578388,52.0587929 C26.6141461,52.6684104 27.3954643,52.6842019 27.8798816,52.6842019 C29.5987817,52.6842019 30.3800999,51.2612401 31.2395499,49.557157 C32.3021427,47.4776721 33.2397245,45.0698474 33.2397245,45.0698474 C33.2397245,45.0698474 32.0677472,51.5897362 35.2711519,51.5897362 C36.4431292,51.5897362 37.6151065,50.0731194 38.1464029,49.2913581 L38.1464029,49.3069934 C38.1464029,49.3069934 38.1776556,49.2600877 38.2401611,49.1506411 C38.3057272,49.0536388 38.3682629,48.95462 38.4276775,48.8537282 L38.4276775,48.8224578 C38.8964684,48.0094261 39.9434348,46.1488343 41.5060712,43.068695 C43.5217159,39.0973479 45.4595414,34.1253464 45.4595414,34.1253464 C45.4595414,34.1253464 45.6470577,35.344894 46.2252332,37.3462027 C46.568857,38.5346362 47.3189224,39.8322035 47.8970979,41.0986567 C47.428307,41.7553361 47.1470324,42.1307379 47.1470324,42.1307379 L47.1626588,42.1463731 C46.7877823,42.6467003 46.3657142,43.1784543 45.9283323,43.7098956 C44.3344431,45.617393 42.4280267,47.7908456 42.1780049,48.4162546 C41.881104,49.1509538 41.9436094,49.6981867 42.5217849,50.1361293 C42.9436967,50.4488338 43.6937622,50.5112184 44.4907068,50.4488338 C45.9283323,50.3548661 46.9284196,49.9954123 47.4284633,49.7763628 C48.2097815,49.4949288 49.1004842,49.0727777 49.9599343,48.4473687 C51.5225707,47.2905184 52.4757789,45.6488198 52.3820207,43.4598884 C52.3351416,42.255976 51.9444825,41.067699 51.4600652,39.9419628 C51.6007025,39.7387048 51.741496,39.5352906 51.8819771,39.3165538 C54.3509426,35.7046605 56.257359,31.7334697 56.257359,31.7334697 C56.257359,31.7334697 56.4448754,32.9530173 57.0230509,34.9543261 C57.3197956,35.9706157 57.9137537,37.080873 58.44505,38.1753387 C56.1323481,40.0672009 54.6790963,42.2561324 54.1790526,43.6945731 C53.2570971,46.3525613 53.9759099,47.5564736 55.3354036,47.8379076 C55.9446755,47.9629894 56.8199082,47.6815554 57.4760592,47.4001214 C58.2886301,47.1343225 59.2730911,46.6807447 60.1795765,46.0085863 C61.7422129,44.8515797 63.2423439,43.2411516 63.164212,41.0678553 C63.1173329,40.0672009 62.8516848,39.0821818 62.4922784,38.1440683 C64.4612003,37.3310366 67.0081414,36.8619798 70.242955,37.2528605 C77.1966871,38.0658921 78.5718072,42.4124846 78.3063152,44.2261707 C78.040667,46.0400131 76.5874152,47.0405112 76.1028416,47.3532157 C75.6184243,47.650285 75.4621607,47.7598879 75.5090398,47.9786247 C75.5715452,48.3071207 75.7903143,48.2913292 76.2122262,48.2289446 C76.7904016,48.1349769 79.8687954,46.7435983 79.9938063,43.3978165 C80.1813227,39.0975043 76.1028416,34.4069368 68.867835,34.4536862 L68.867835,34.4536862 Z M15.2381529,52.5436413 C12.9410774,55.0609125 9.70642001,56.0146612 8.33129996,55.2016295 C6.84679535,54.3416921 7.42481457,50.6361438 10.2533428,47.9625204 C11.9722428,46.336457 14.2068129,44.8354754 15.6756911,43.9129972 C16.0038448,43.7097392 16.5038884,43.4128263 17.0976903,43.0530598 C17.1914485,42.9906753 17.2539539,42.9592485 17.2539539,42.9592485 C17.3633385,42.8967076 17.4883494,42.8185314 17.6133603,42.7403553 C18.6603267,46.5553502 17.6602394,49.9012883 15.2381529,52.5436413 L15.2381529,52.5436413 Z M32.0364945,41.1142919 C31.2395499,43.068695 29.5519026,48.0876022 28.5361889,47.8061681 C27.6609562,47.5716398 27.1298161,43.7722801 28.3641426,40.0198262 C28.9891972,38.1278076 30.3174382,35.8764916 31.0987564,35.0007627 C32.3646481,33.5935924 33.7396119,33.1245357 34.0835482,33.703039 C34.4898337,34.4536862 32.5365381,39.8947444 32.0364945,41.1142919 Z M45.8970796,47.7436272 C45.5532996,47.9157711 45.2407723,48.0406965 45.100135,47.9470415 C44.9907504,47.8845006 45.240616,47.6499722 45.240616,47.6499722 C45.240616,47.6499722 46.9751424,45.7893805 47.6627025,44.9294431 C48.0533616,44.4292723 48.5221525,43.850769 49.0221961,43.1939332 L49.0221961,43.3815559 C49.0223524,45.6328719 46.8659141,47.1338535 45.8970796,47.7436272 Z M56.5853564,45.3045322 C56.3353346,45.1169095 56.3667436,44.5384062 57.210411,42.7247201 C57.5387209,42.0054997 58.2886301,40.8015874 59.5856184,39.660216 C59.741882,40.1292728 59.8357965,40.5825379 59.8200138,41.0048454 C59.8045437,43.8191858 57.8043691,44.8667459 56.5853564,45.3045322 Z" id="Shape"></path>
                </g>
            </g>
        </g>
    </g>
</svg>