<?xml version="1.0" encoding="UTF-8"?>
<svg width="139px" height="139px" viewBox="0 0 139 139" version="1.1" xmlns="http://www.w3.org/2000/svg" xmlns:xlink="http://www.w3.org/1999/xlink">
    <title>Socket.io</title>
    <g id="Web" stroke="none" stroke-width="1" fill="none" fill-rule="evenodd">
        <g id="01" transform="translate(-625.000000, -243.000000)">
            <g id="Socket.io" transform="translate(625.000000, 243.000000)">
                <rect id="bg-rectangle" fill="#F2F2F3" x="0" y="0" width="139" height="139" rx="23"></rect>
                <g id="socket-io" transform="translate(43.000000, 44.000000)" fill-rule="nonzero">
                    <path d="M19.4152604,0.820819215 C26.1432404,-0.906373096 33.5791105,0.100094738 39.5126688,3.76591692 C46.9856537,8.23950155 51.8643619,16.7018046 51.9884251,25.4126981 C52.2615727,34.2104209 47.6808248,42.9338379 40.3196011,47.718004 C32.1266325,53.2352094 20.793092,53.4466469 12.4262263,48.2026615 C3.89818277,43.1077051 -1.07977596,32.8311717 0.19901356,22.9645726 C1.22905109,12.5388015 9.27335233,3.34345925 19.4152604,0.821027939 L19.4152604,0.820819215 Z" id="Path" fill="#010101"></path>
                    <path d="M18.4372107,5.38619814 C31.0128565,0.356241126 46.4376399,9.64301306 47.7392659,23.1132421 C49.7657593,35.2337694 39.6953825,47.5506731 27.4021337,47.9065411 C15.7108097,49.0720239 4.41244875,39.1716014 4.080957,27.4438269 C3.209012,17.9485209 9.47228762,8.52677884 18.4372107,5.38619814 Z" id="Path" fill="#F2F2F3"></path>
                    <path d="M20.3235174,25.1676339 C25.8824128,20.4534649 31.320069,15.5758647 37,11 C34.0206909,15.7519651 30.9567584,20.4407958 27.9774493,25.1925498 C25.4220702,25.2052188 22.8668946,25.2052188 20.3235174,25.1674227 L20.3235174,25.1676339 Z M25.0225507,27.7947812 C27.5899316,27.7947812 30.1453107,27.7947812 32.7006897,27.8325773 C27.1055854,32.521408 21.6921363,37.4365932 16,42 C18.9793091,37.2480349 22.0432416,32.5467462 25.0225507,27.7947812 Z" id="Shape" fill="#010101"></path>
                </g>
            </g>
        </g>
    </g>
</svg>