<?xml version="1.0" encoding="UTF-8"?>
<svg width="139px" height="139px" viewBox="0 0 139 139" version="1.1" xmlns="http://www.w3.org/2000/svg" xmlns:xlink="http://www.w3.org/1999/xlink">
    <title>stripe</title>
    <g id="Web" stroke="none" stroke-width="1" fill="none" fill-rule="evenodd">
        <g id="01" transform="translate(-817.000000, -243.000000)">
            <g id="stripe" transform="translate(817.000000, 243.000000)">
                <rect id="bg-rectangle" fill="#F2F2F3" x="0" y="0" width="139" height="139" rx="23"></rect>
                <g id="stripe-ar21" transform="translate(28.000000, 52.000000)" fill="#6772E5">
                    <path d="M82.759,17.79 C82.759,11.905 79.909,7.26 74.459,7.26 C68.989,7.26 65.677,11.904 65.677,17.743 C65.677,24.663 69.585,28.157 75.194,28.157 C77.93,28.157 79.999,27.537 81.562,26.663 L81.562,22.065 C79.999,22.847 78.206,23.329 75.93,23.329 C73.7,23.329 71.723,22.547 71.47,19.835 L82.71,19.835 C82.71,19.535 82.756,18.341 82.756,17.789 L82.759,17.79 Z M71.412,15.607 C71.412,13.009 72.998,11.929 74.447,11.929 C75.849,11.929 77.344,13.009 77.344,15.607 L71.412,15.607 Z M56.815,7.262 C54.562,7.262 53.115,8.319 52.309,9.055 L52.009,7.63 L46.942,7.63 L46.942,34.435 L52.689,33.217 L52.712,26.711 C53.54,27.309 54.758,28.159 56.782,28.159 C60.897,28.159 64.644,24.859 64.644,17.561 C64.621,10.894 60.828,7.261 56.804,7.261 L56.815,7.262 Z M55.435,23.102 C54.079,23.102 53.275,22.619 52.722,22.022 L52.699,13.492 C53.297,12.825 54.124,12.366 55.435,12.366 C57.527,12.366 58.975,14.711 58.975,17.722 C58.975,20.802 57.55,23.102 55.435,23.102 L55.435,23.102 Z M39.035,5.906 L44.805,4.666 L44.805,0 L39.035,1.218 L39.035,5.906 Z M39.035,7.653 L44.805,7.653 L44.805,27.768 L39.035,27.768 L39.035,7.653 Z M32.85,9.353 L32.482,7.653 L27.516,7.653 L27.516,27.77 L33.263,27.77 L33.263,14.136 C34.619,12.366 36.918,12.688 37.631,12.941 L37.631,7.654 C36.895,7.378 34.206,6.872 32.849,9.354 L32.85,9.353 Z M21.356,2.653 L15.747,3.85 L15.724,22.264 C15.724,25.666 18.276,28.172 21.678,28.172 C23.563,28.172 24.942,27.827 25.701,27.412 L25.701,22.745 C24.965,23.045 21.333,24.101 21.333,20.699 L21.333,12.55 L25.701,12.55 L25.701,7.653 L21.331,7.653 L21.356,2.653 Z M5.816,13.481 C5.816,12.584 6.552,12.241 7.77,12.241 C9.75814927,12.2833476 11.7093404,12.7865496 13.47,13.711 L13.47,8.32 C11.562,7.56 9.677,7.263 7.77,7.263 C3.103,7.263 0,9.7 0,13.769 C0,20.114 8.736,19.102 8.736,21.839 C8.736,22.896 7.816,23.241 6.529,23.241 C4.621,23.241 2.184,22.459 0.253,21.401 L0.253,26.871 C2.391,27.791 4.553,28.171 6.529,28.171 C11.311,28.171 14.599,25.803 14.599,21.688 C14.576,14.838 5.817,16.056 5.817,13.481 L5.816,13.481 Z" id="Shape"></path>
                </g>
            </g>
        </g>
    </g>
</svg>