<?xml version="1.0" encoding="UTF-8"?>
<svg width="139px" height="139px" viewBox="0 0 139 139" version="1.1" xmlns="http://www.w3.org/2000/svg" xmlns:xlink="http://www.w3.org/1999/xlink">
    <title>styled</title>
    <g id="Web" stroke="none" stroke-width="1" fill="none" fill-rule="evenodd">
        <g id="01" transform="translate(-241.000000, -243.000000)">
            <rect fill="#FFFFFF" x="0" y="0" width="1440" height="526"></rect>
            <g id="styled" transform="translate(241.000000, 243.000000)">
                <rect id="bg-rectangle" fill="#F2F2F3" x="0" y="0" width="139" height="139" rx="23"></rect>
                <g transform="translate(39.000000, 39.000000)" fill-rule="nonzero">
                    <path d="M34.8166578,59.321315 C34.906268,59.1198303 35.1324271,58.9798515 35.2967125,58.8101803 C37.8036648,56.1972428 40.3319529,53.6076352 42.804768,50.9628844 C44.3733698,49.5227835 45.1738706,47.4361207 44.9682144,45.3234358 C44.8905805,44.8771474 44.7887314,44.4353574 44.663113,44 C43.9889029,44.6362672 43.3616314,45.2152704 42.7300928,45.7985154 C41.7486476,46.7062566 40.7714696,47.6182397 39.7814902,48.5153765 C38.5864664,49.7265869 36.7639148,50.0799894 35.198568,49.4040297 C33.6163177,48.8262144 32.5333829,47.3658517 32.4462544,45.6924708 C32.4233223,45.5871653 32.3926589,45.4836715 32.3545106,45.3828208 C31.6013582,46.019088 30.8802093,46.6044539 30.1654612,47.2067869 L15.3093686,59.7200424 C15.2069569,59.8069989 15.0960109,59.9151644 15,60 L34.8059899,60 L34.7761199,59.980912 C34.669441,59.9066808 34.724914,59.5164369 34.8166578,59.321315 L34.8166578,59.321315 Z" id="Path" fill="#FFCEBF"></path>
                    <path d="M13.5671746,59.3140659 C13.745902,59.087139 13.9616126,58.8903517 14.2057063,58.7315496 L35.0629645,41.4776688 C36.4857718,40.2999728 37.9020855,39.115945 39.3119057,37.9255855 C39.4860971,37.807145 39.6226096,37.6433172 39.7058473,37.4528186 C40.0430743,36.0199453 40.0908618,34.5367446 39.8465407,33.0860566 C39.6300893,33.2337963 39.5132055,33.2971133 39.4136379,33.400531 C37.7058362,34.890591 36.0066926,36.3933143 34.2902329,37.8749319 C33.1236542,39.01979 31.3329327,39.3002899 29.857308,38.5693083 C28.3565013,37.8784667 27.4328465,36.3715727 27.5196327,34.7555147 C27.5196327,34.5761166 27.5196327,34.398829 27.5196327,34.0716912 C27.2057782,34.2954112 26.9763397,34.4452614 26.7620528,34.6141068 C18.4142432,41.1315359 10.0678767,47.6440405 1.72295325,54.1516204 C1.34632779,54.4449891 0.896108852,55.0992647 0.402599629,54.4639842 C-0.0909095936,53.8287037 0.660176811,53.5669935 1.03896678,53.2715142 C9.93511988,46.310866 18.835602,39.3565496 27.7404131,32.4085648 C29.1906376,31.2751906 29.2858762,30.8003132 28.3421481,29 L27.7793744,29.5149782 C26.2360758,30.9142838 24.6754611,32.2945942 23.1559722,33.717116 C21.883922,34.9135202 20.020485,35.2916912 18.3645256,34.6895054 C16.7085661,34.0873195 15.5541532,32.6117143 15.396189,30.8952887 C15.1083087,31.1063453 14.8593895,31.2604167 14.6234575,31.4398148 L1.41992127,41.418573 C1.19219718,41.6363572 0.93249589,41.8198767 0.64935424,41.9630991 C0.435659656,42.0260734 0.206186485,42.0148857 0,41.9314406 L0,60 L13.5412004,60 C13.4391409,59.78002 13.4487557,59.5261081 13.5671746,59.3140659 L13.5671746,59.3140659 Z" id="Path" fill="#FFCEBF"></path>
                    <path d="M49.2870355,0.775860485 C48.9078842,2.01768316 48.5398844,3.26173531 48.2075694,4.51693489 C47.5714106,6.35529574 48.4416102,8.37535178 50.2148411,9.17655677 C52.8319019,10.551701 55.7809649,11.1694027 58.7301335,10.9601441 L58.7301335,0.987661479 C58.697369,0.769017037 58.7095109,0.545991905 58.7658183,0.332193139 C58.8282796,0.211256527 58.907078,0.0994788242 59,0 L49.2781143,0 C49.4275445,0.173899764 49.3762476,0.479339093 49.2870355,0.775860485 L49.2870355,0.775860485 Z" id="Path" fill="#FF6196"></path>
                    <g id="Group" transform="translate(17.000000, 20.000000)" fill="#FF87AF">
                        <path d="M14.4191736,2.32354345 C14.3749245,3.3865603 14.0021634,4.40990474 13.3519937,5.25328226 C11.0277007,8.24636624 8.35847883,10.9562646 5.39936912,13.3270974 C4.4204002,14.2310886 2.96909762,14.4030333 1.80510724,13.7529315 C0.647869621,13.2597244 -0.0727629198,12.0931425 0.00584194084,10.840226 C0.0741992842,10.0892888 0.386746713,9.38122455 0.895869971,8.82390143 C4.20484257,5.6763774 7.78997121,2.83106669 11.6082217,0.322123038 C12.1210551,-0.0790362027 12.8335645,-0.108187494 13.377606,0.249731236 C14.0886154,0.690141753 14.4912231,1.49175336 14.4191736,2.32354345 L14.4191736,2.32354345 Z" id="Path"></path>
                        <path d="M11.8622105,15.2284467 C11.7617706,14.2743332 12.1157554,13.3284648 12.8184037,12.673442 C16.0583293,9.69240389 19.5344173,6.9773938 23.2127359,4.55491428 C23.3237226,4.48465165 23.4261719,4.41438902 23.5478304,4.34199722 C24.2087158,3.86604493 25.1087484,3.89670303 25.7355491,4.41651819 C26.3402872,4.92753554 26.5484849,5.76774216 26.2520642,6.50097626 C25.7867086,8.04716639 24.9278442,9.4467632 23.759132,10.5634339 C21.4006644,12.9055216 18.9525538,15.1709591 16.5023087,17.4193633 C15.7390691,18.2023275 14.5412916,18.3705197 13.591042,17.8281641 C12.6042319,17.3166326 11.9509669,16.3342903 11.8622105,15.2284467 L11.8622105,15.2284467 Z" id="Path"></path>
                        <path d="M27.2637508,16.6358285 C26.66613,17.2745797 26.0514344,17.8835225 25.4772916,18.5371779 C25.3046506,18.7898194 25.1614358,19.061266 25.0504197,19.3462628 C25.3663049,19.4399463 25.7355491,19.6869301 25.9916723,19.5996341 C27.2957662,19.1631541 28.5678446,18.6393781 30,18.0879229 C29.6883835,18.8033243 29.4536039,19.4633672 29.1227781,20.0680516 C27.75988,22.3529373 26.0531065,24.4153312 24.0622111,26.1830297 C23.3052248,26.9112061 22.519069,27.6074449 21.7037435,28.2717461 C20.8246898,28.9994717 19.6209299,29.1986319 18.5534419,28.7929585 C17.485954,28.3872851 16.720139,27.4396349 16.5492646,26.3129091 C16.4801497,25.691392 16.6630552,25.068112 17.0572423,24.5818934 C19.9617246,21.4355188 23.2811071,18.6972219 26.9243875,16.442074 C26.9686858,16.4249352 27.0156224,16.4155707 27.0631209,16.4143948 L27.2637508,16.6358285 Z" id="Path"></path>
                    </g>
                    <path d="M49,26.7643063 L52.5266232,11 L55,11.5828645 L53.7241498,15.4845303 C52.5328066,19.1144692 51.3270354,22.7444082 50.1645483,26.3784956 C49.9378221,27.0505529 49.6410168,27.1750079 49,26.7643063 L49,26.7643063 Z" id="Path" fill="#FF6196"></path>
                    <path d="M45,38 C45.365953,36.40702 45.7298841,34.933917 46.0372037,33.4446766 C46.3367139,32.0004524 46.9063944,30.6470786 47.7072432,29.4772113 C48.1985502,28.7418124 48.7505124,29.0345888 49.3146056,29.1936562 C49.8362402,29.3388918 49.9676598,29.7745983 49.9899,30.346319 C50.0721535,31.9273382 49.6498758,33.4888926 48.8010584,34.7425749 C47.7905415,36.1709742 46.4843165,37.2903808 45,38 L45,38 Z" id="Path" fill="#FF6196"></path>
                    <path d="M59.9717021,1.91716901 C60.0036767,1.43993621 59.9914834,0.96076933 59.935278,0.485780848 C59.8910568,0.353103965 59.8035213,0.23914623 59.6867369,0.162218555 C59.5916217,0.0848723204 59.4803094,0.0299433072 59.3610624,0.00150880675 C59.2924993,-0.0113479731 59.1960825,0.0593643161 59.1039509,0.160075758 C59.0146831,0.255686615 58.9389834,0.363118142 58.8789784,0.479352458 C58.8248853,0.684838233 58.8132209,0.899191631 58.8446969,1.10933467 L58.8446969,10.6919213 C56.0115042,10.8930434 53.1784129,10.2993593 50.6642678,8.97768394 C48.9607691,8.20763166 48.12479,6.26612008 48.7359319,4.49923896 C49.0551786,3.29284445 49.4087069,2.09716392 49.7729481,0.903626193 C49.8586519,0.61863424 49.9079316,0.3250711 49.7729481,0.157932962 C49.6978647,0.0765684814 49.594208,0.0274229363 49.4836977,0.0207939765 C49.342161,0.0223207401 49.2050858,0.0705275158 49.0937454,0.157932962 C48.9335187,0.253781398 48.8058521,0.395646533 48.7273616,0.565064324 C48.2988425,1.85074231 47.9217457,3.14927707 47.5939286,4.46066862 C47.4701673,4.97744552 47.4368216,5.51175293 47.4953692,6.03990974 C47.6646683,7.99138141 48.9552032,9.66538418 50.7992513,10.325503 C51.2042018,10.494784 51.4420299,10.6619221 51.3284723,11.1954785 C51.1720629,11.8726022 51.0199386,12.5497259 50.8656717,13.2289925 C49.8158,17.8317197 48.7716419,22.4365897 47.7331973,27.0436024 C47.703927,27.2490078 47.6136019,27.4408734 47.4739433,27.5943012 C46.789497,28.1383851 46.2144095,28.8073233 45.7791503,29.5656741 C45.2244924,30.5664434 44.8406971,31.6527586 44.6435748,32.779869 C44.5666295,33.5110919 44.1132552,34.1489633 43.4480065,34.4619644 C42.5545443,34.9140945 41.7339302,35.499078 40.7419086,36.1076322 C40.8080494,34.9145505 40.7951656,33.718399 40.7033419,32.527019 C40.5500146,31.782726 40.778293,31.0110082 41.311839,30.4699343 C42.6186071,29.1752359 43.5500875,27.550546 44.0072239,25.7686384 C44.2841372,24.9309263 44.1458774,24.0114195 43.6348602,23.2922052 C43.123843,22.5729909 42.3010761,22.1399325 41.4189687,22.1258841 C40.7147467,22.1180366 40.0233513,22.3145334 39.4284976,22.6915825 C37.3780339,24.0758291 35.3832776,25.5457876 33.4035194,27.0328884 C32.2315198,27.9157207 31.1280831,28.8928359 29.9925076,29.8185241 C29.9435629,29.7659476 29.9011202,29.7076735 29.8660945,29.6449576 C29.8443768,29.4871951 29.8018698,29.3330026 29.7396813,29.1863991 C28.7905116,27.7207262 29.4482884,26.6557562 30.4788767,25.5607872 C31.5525572,24.4352045 32.1458258,22.9357542 32.1329604,21.3801909 C32.1662501,20.587616 31.9180615,19.8088225 31.4323317,19.1816816 C31.1735746,18.8633335 30.8546954,18.5990321 30.4938749,18.4038464 C29.4442696,17.8293305 28.1481836,17.9677522 27.2435577,18.7509794 L26.6457736,19.1795388 C25.2809404,20.156654 23.8989664,21.1080557 22.5855554,22.1537405 C20.6679325,23.6794117 18.7953042,25.2693668 16.9590999,26.8978923 C16.1020618,27.6542995 15.4764239,28.6871275 14.5872469,29.3899648 C9.95067047,33.0520042 5.26481438,36.647617 0.596099062,40.2668005 C0.435564654,40.3625763 0.287953647,40.4785158 0.156867011,40.6117908 C0.143372311,40.6312944 0.131886577,40.6521143 0.122585485,40.6739319 C0.0240260973,40.9032111 -0.0595351223,41.2824861 0.0561650279,41.4217679 C0.0845264559,41.451998 0.11880465,41.4760679 0.156867011,41.4924802 C0.360965566,41.5771996 0.588114998,41.5885581 0.799645623,41.5246221 C1.07992006,41.3792126 1.33699152,41.1928905 1.56240958,40.9717806 L14.6322414,30.8406381 C14.8657843,30.6585004 15.1121827,30.493505 15.3971479,30.2877965 C15.5535124,32.0304335 16.6962353,33.5285725 18.3354258,34.1399543 C19.9746163,34.751336 21.8191834,34.36739 23.0783523,33.1527157 C24.5781691,31.7084707 26.1272655,30.3070817 27.654936,28.8864075 L28.2120108,28.3635652 C29.1461824,30.1913707 29.0519082,30.6734999 27.6163693,31.8241817 C18.79459,38.8839824 9.9792384,45.9452116 1.17031462,53.0078693 C0.795360432,53.3078609 0.0540224326,53.5799961 0.540391583,54.2185495 C1.02676073,54.8571029 1.47456317,54.1992643 1.84737476,53.9014155 C10.1120793,47.3001734 18.3710703,40.69036 26.6243477,34.0719754 C26.8386072,33.9005517 27.0635797,33.7484131 27.3742561,33.5212767 L27.3742561,34.2155428 C27.2883487,35.8562794 28.2026502,37.386185 29.6882591,38.0875763 C31.148941,38.8297206 32.9215289,38.5449373 34.0762944,37.3825962 C35.7753725,35.8826386 37.4573099,34.3526818 39.1478176,32.8398674 C39.2549474,32.7434415 39.3792179,32.6705864 39.5763367,32.5205907 C39.8181837,33.9934319 39.7708801,35.4992824 39.437068,36.9540369 C39.3546732,37.1474446 39.2195432,37.3137742 39.0471156,37.4340234 C37.6501435,38.6411321 36.2481719,39.843241 34.8412009,41.0403501 L14.2037223,58.5598554 C13.9621004,58.7210826 13.7485742,58.9208751 13.5716566,59.1512673 C13.4572435,59.3642482 13.4477518,59.6181755 13.5459455,59.839105 C13.7420644,59.9860497 13.9943976,60.0357325 14.231576,59.9741012 C14.3239717,59.9472658 14.408993,59.8996201 14.4801171,59.8348195 C14.5872469,59.7491076 14.6943766,59.639825 14.7907934,59.5519703 L29.709685,46.9094701 C30.4274545,46.3009159 31.1516517,45.7009328 31.9079879,45.066665 C31.9462974,45.1685574 31.9770904,45.2731201 32.0001195,45.3795133 C32.0876163,47.0701778 33.1751288,48.5456241 34.7640675,49.1294074 C36.3360313,49.8123489 38.166287,49.4552962 39.3663624,48.2315756 C40.3605266,47.3251727 41.3418353,46.4037701 42.3274292,45.4866531 C42.9702078,44.8973841 43.5915604,44.3059722 44.2686206,43.6695616 C44.3947699,44.1094156 44.4970496,44.5557687 44.5750117,45.0066667 C44.7746448,47.1339397 43.9713428,49.2327039 42.40242,50.682935 C39.919152,53.3571452 37.3801764,55.9734999 34.8626269,58.6112826 C34.697647,58.7827063 34.4705319,58.9241309 34.3805429,59.1276966 C34.2905539,59.3312622 34.2327038,59.7298224 34.3398336,59.8155343 L34.3698299,59.8348195 C34.5944892,59.9440864 34.8471329,59.9822108 35.0940272,59.9441021 C35.1632073,59.9299104 35.22488,59.8910758 35.2675774,59.8348195 C35.3275701,59.7726783 35.3854202,59.6955377 35.4432702,59.6376822 C37.483021,57.5291703 39.5334848,55.4313724 41.5582374,53.3078609 C42.3755188,52.4797432 43.1438694,51.6047142 43.8593849,50.6872206 C45.7642743,48.5782185 46.2740383,45.5561206 45.166368,42.9388679 C45.1080475,42.653039 45.165037,42.3557417 45.3249201,42.1117484 C45.4641888,41.8717552 45.6184557,41.6381904 45.7770077,41.4067683 C46.2843348,40.7480093 46.7068794,40.0281043 47.0347112,39.2639717 C47.6682401,37.3885767 48.6406718,35.6454435 49.9036464,34.1212597 C51.0811646,32.6282232 51.4788496,30.6642704 50.9749441,28.8306948 C50.8871517,28.4869368 50.8871517,28.1266253 50.9749441,27.7828673 C52.0590974,24.4251049 53.1753895,21.0780566 54.2809688,17.7288654 C54.7766225,16.2289078 55.2694194,14.7332357 55.7593596,13.2418493 L56.2157324,11.8554598 C57.1884707,11.8554598 58.1055015,11.8361747 59.0182471,11.8554598 C59.7767259,11.8768878 60.0081262,11.5211836 59.9997838,10.7840615 C59.9545613,7.82700214 59.9717021,4.87208557 59.9717021,1.91716901 L59.9717021,1.91716901 Z M21.9684879,32.5720178 C20.9857416,33.4817943 19.528839,33.6548393 18.3603573,33.0005771 C17.1986544,32.5042136 16.4752412,31.330166 16.5541494,30.0692313 C16.6227705,29.3134883 16.9365239,28.6008927 17.4476117,28.0400029 C20.7693522,24.8723357 24.3683143,22.0088159 28.2012979,19.4838159 C28.4104978,19.3359076 28.6484857,19.2336946 28.899784,19.1838243 C29.0683413,19.1527289 29.2411643,19.1527289 29.4097217,19.1838243 C29.6115849,19.2231455 29.8042171,19.3002056 29.9775094,19.4109608 C30.6919913,19.8545502 31.0962597,20.6623344 31.023096,21.5001875 C30.9786761,22.5700073 30.6044767,23.5999008 29.9517983,24.4486757 C27.6184073,27.4601629 24.938891,30.1866794 21.9684879,32.5720178 L21.9684879,32.5720178 Z M33.1099839,36.7054725 C32.3437992,37.4934474 31.1414,37.662716 30.1874838,37.1168894 C29.1950275,36.6008965 28.5389399,35.6093821 28.4519815,34.4941064 C28.351154,33.5338868 28.7065047,32.5819651 29.4118643,31.9227504 C32.6642913,28.9226346 36.153792,26.1902494 39.8463037,23.7522668 C39.9577187,23.6815545 40.0605633,23.6108422 40.1826912,23.5379871 C40.8461267,23.0589889 41.7496321,23.0898432 42.3788515,23.612985 C42.9859229,24.1272727 43.194924,24.9728564 42.8973595,25.7107829 C42.4302083,27.2668682 41.5680299,28.6754219 40.3948081,29.7992389 C38.0315254,32.1606008 35.5739685,34.4341081 33.1142691,36.6969013 L33.1099839,36.7054725 Z M45.7748651,39.3646831 C44.408597,41.6605516 42.6981893,43.7331794 40.7033419,45.5102239 C39.9434347,46.2430603 39.1542454,46.9437549 38.335774,47.6123074 C37.4533283,48.3446902 36.2449236,48.5451249 35.1733167,48.1368554 C34.1017098,47.7285858 33.3329398,46.7748709 33.1614062,45.6409345 C33.0920246,45.0154398 33.2756358,44.388171 33.6713439,43.8988408 C36.5870334,40.7323305 39.9192239,37.9765093 43.5765623,35.7069293 C43.6210314,35.6896807 43.6681491,35.6802563 43.715831,35.6790729 L43.9300905,35.8933526 C43.3301638,36.5361916 42.7130963,37.1490314 42.1367382,37.80687 C41.963431,38.0611283 41.8196636,38.334312 41.7082191,38.6211327 C42.0253232,38.7154157 42.3959922,38.9639802 42.6531037,38.8761255 C43.6879772,38.5289924 44.70571,38.1261467 45.7962911,37.6975873 L46.6768978,37.3547399 C46.3469381,38.0832907 46.1112526,38.7475577 45.7791503,39.3561119 L45.7748651,39.3646831 Z M48.7166486,33.9326936 C47.9174306,34.9502592 46.9157039,35.7908255 45.7748651,36.4011954 C45.4220511,36.5983327 45.0599525,36.7826132 44.6885693,36.9540369 C45.0699512,35.4947924 45.4513332,34.1426877 45.7748651,32.7755835 L45.7877207,32.7198707 C46.1051193,31.3774665 46.7088244,30.1195076 47.5575045,29.0321177 C48.0781552,28.3485656 48.6630837,28.6207008 49.2608678,28.7685537 C49.8136574,28.9035499 49.9529261,29.3085385 49.9764947,29.8399521 C50.0643536,31.3082472 49.6184224,32.758801 48.7209338,33.9241225 L48.7166486,33.9326936 Z M53.7303217,15.7189222 C52.4919016,19.4688163 51.2384833,23.2187104 50.0300595,26.9728901 C49.8029444,27.6778702 49.4944107,27.806438 48.8280635,27.3821643 L52.0055325,13.254706 L52.4940442,11.0861958 L55.0651587,11.6883217 C54.8894658,12.2175925 54.7202008,12.738292 54.5487932,13.254706 L53.7303217,15.7189222 Z" id="Shape" fill="#000000"></path>
                </g>
            </g>
        </g>
    </g>
</svg>